# xmcd
#
# Track frame offsets: 
#        183
#        14485
#        29623
#        50703
#        66943
#        86065
#        100650
#        114715
#        130825
#        146200
#        158040
#        172773
#
# Disc length: 2459 seconds
#
# Revision: 6
# Processed by: cddbd v1.5.2PL0 Copyright (c) Steve Scherf et al.
# Submitted via: ExactAudioCopy v0.99pb4
#
DISCID=a609990c
DTITLE=Various Artist - Didn't It Blow Your Mind Vol. 13
DYEAR=1991
DGENRE=Soul
TTITLE0=Hues Corporation - Rock The Boat
TTITLE1=George McCrae - Rock Your Baby
TTITLE2=Kool And The Gang - Hollywood Swinging
TTITLE3=Love Unlimited Orchestra - Love's Theme
TTITLE4=Blue Magic - Sideshow
TTITLE5=Millie Jackson - Hurts So Good
TTITLE6=Impressions - Finally Got Myself Together (I'm A Changed Man)
TTITLE7=Rufus - Tell Me Something Good
TTITLE8=Johnny Bristol - Hang On In There Baby
TTITLE9=Billy Preston - Nothing From Nothing
TTITLE10=B.T. Express - Do It ('Til You're Satisfied)
TTITLE11=Carl Carlton - Everlasting Love
EXTD=
EXTT0=
EXTT1=
EXTT2=
EXTT3=
EXTT4=
EXTT5=
EXTT6=
EXTT7=
EXTT8=
EXTT9=
EXTT10=
EXTT11=
PLAYORDER=
